<svg xmlns="http://www.w3.org/2000/svg" version="1.0" viewBox="0 0 504 495"><style>@media (prefers-color-scheme:dark){svg{fill:#fff}}</style><path d="M232 4c-24 2.9-38.7 6-56.8 12-37.1 12.3-66.7 30.5-94.8 58.5-14.7 14.7-22.6 24-30.8 36.5-2.7 4.1-5.7 8.6-6.6 10-3.5 5.1-11.9 21.8-15.9 31.3C13.6 184.1 7.7 213.2 7.7 248c0 27.4 3.3 49.1 11.6 75.5 10.7 34 31 68.1 56.6 94.9 5.7 5.9 24.9 22.8 29.1 25.6 1.2.8 3.2 2.2 4.4 3.1 21.3 16.1 52.7 30.8 82.1 38.4 22 5.8 33.1 7 61 6.9 22.2-.1 27.8-.4 38.5-2.3 39.5-7 67-18.1 101.4-41 18-11.9 47.3-40.8 58.9-58.1.9-1.4 3-4.5 4.8-6.9 13.7-19.5 26.8-49.6 33.9-78.1 5.4-22.1 6.5-31.4 6.5-57.5s-1.1-35.4-6.5-58.1c-8.6-35.4-27.9-73.9-49.4-98.4-1.7-2-5.6-6.4-8.6-9.9-7-8-21.8-21.3-33.5-30-32.4-24.2-71.3-40.2-112-46.2C271.6 3.7 243 2.7 232 4zm132 152.6c5.7 2.6 12.5 10 13.9 15 .7 2.6 1.1 26.3 1.1 70.7 0 53.9.3 67.4 1.4 70 .7 1.8 3.7 6.1 6.7 9.6 9.6 11.3 9.9 11.9 9.9 19 0 8.3-2.7 14.2-8.3 17.9l-4.1 2.7-128 .3c-70.5.2-130.5 0-133.3-.3-4.3-.5-6.1-1.4-10-5l-4.8-4.3-.3-9.1-.4-9 7.3-9.3c3.9-5.1 7.7-9.9 8.3-10.7.8-1 1.3-22.9 1.6-71.5l.5-70.1 2.7-4.5c4.2-7.2 10.5-11.7 18.3-13.1 2.2-.4 51-.6 108.5-.5 103.8.1 104.5.1 109 2.2z"/><path d="M151.7 180.7c-.4.3-.7 29.4-.7 64.5V309h202V180H252.7c-55.2 0-100.7.3-101 .7zm121.4 30c2.7 1.4 4.9 3 4.9 3.5 0 1.3-2.4 5.7-9.1 17-3.2 5.4-5.9 10.1-5.9 10.3 0 .3-1 2.2-2.3 4.3-1.3 2-3.7 6.2-5.4 9.2-9.4 16.9-16.8 29.2-17.8 29.6-1.1.5-10.1-4.1-11-5.6-.4-.7 2.8-7.1 7.5-15 1.4-2.3 6.7-11.7 18.5-32.5 12.8-22.8 13.2-23.5 14.6-23.5.6 0 3.3 1.2 6 2.7zm-60.5 5.5c6.2 6.7 6.6 5.4-6.2 18.3l-11.7 11.6 11.9 12 11.8 11.9-4.9 5-5 5-16.2-16.2c-9-9-16.2-16.9-16.1-17.6.3-1.3 31.8-33.2 32.9-33.2.3 0 1.9 1.5 3.5 3.2zM313 229.5l16.5 16.5-6.5 6.6c-3.6 3.6-11.2 11.3-16.9 17.1l-10.4 10.5-5.1-5.1-5-5.1 11.7-11.4c6.4-6.3 11.7-11.9 11.7-12.3 0-.5-4.9-5.8-11-11.8-6-6-11-11.4-11-11.9 0-1.1 8-9.6 9-9.6.3 0 7.9 7.4 17 16.5zm-86.7 106.1c-.8.4-.9 1.3-.1 3.5 1.9 5.6 3.2 5.9 26.6 5.9h21.3l2.5-2.5c1.6-1.6 2.4-3.4 2.2-4.8l-.3-2.2-25.5-.2c-14-.1-26 .1-26.7.3z"/></svg>