<svg xmlns="http://www.w3.org/2000/svg" xml:space="preserve" style="enable-background:new 0 0 174 174" viewBox="0 0 174 174"><style>@media (prefers-color-scheme:dark){.g{fill:#fff}}</style><path d="M59.2 121.6c-19.9 0-32.1-16.7-32.1-34.8C27.1 67.7 38 52.4 59 52.4c15.4 0 27.3 9.2 28.3 22.2H73.6c-.7-6.1-7.2-10.9-14.6-10.9-10.8 0-18.1 8.4-18.1 23.8 0 10.6 5.4 22.8 18 22.8 11.8 0 15.8-5.8 15.8-14.8H60.3v-11h27v10.9c.1 15.4-6.5 26.2-28.1 26.2z" class="g"/><path d="M98 47.9c-1.4-.8-3.2-.3-4.1 1.1-.4.7-.5 1.5-.3 2.3l5.7 8.4c11 16.5 11 38 0 54.5l-5.7 8.4c-.5 1.6.5 3.2 2 3.7.8.2 1.6.1 2.3-.3l47.6-36c1.6-1.2 2-3.6.7-5.2-.2-.3-.4-.5-.7-.7L98 47.9z" style="fill:#bfd732"/></svg>